<svg xmlns="http://www.w3.org/2000/svg" xmlns:xlink="http://www.w3.org/1999/xlink" width="80" zoomAndPan="magnify" viewBox="0 0 60 30.000001" height="40" preserveAspectRatio="xMidYMid meet" version="1.0"><defs><g/><clipPath id="0ac6289a28"><path d="M 3.871094 7.082031 L 17.917969 7.082031 L 17.917969 21.128906 L 3.871094 21.128906 Z M 3.871094 7.082031 " clip-rule="nonzero"/></clipPath></defs><g clip-path="url(#0ac6289a28)"><path fill="#4b7bec" d="M 17.753906 7.15625 C 17.6875 7.109375 17.609375 7.082031 17.523438 7.082031 L 4.269531 7.082031 C 4.203125 7.082031 4.136719 7.097656 4.082031 7.128906 C 3.953125 7.195312 3.871094 7.324219 3.871094 7.480469 L 3.871094 15.160156 C 3.914062 14.90625 3.984375 14.65625 4.070312 14.414062 C 4.371094 13.550781 4.894531 12.820312 5.632812 12.222656 C 6.371094 11.625 7.265625 11.210938 8.3125 10.996094 C 9.253906 10.796875 10.132812 10.777344 10.949219 10.9375 C 11.761719 11.097656 12.480469 11.429688 13.105469 11.929688 L 11.410156 14.191406 C 10.65625 13.613281 9.863281 13.410156 9.027344 13.582031 C 8.316406 13.734375 7.789062 14.066406 7.457031 14.585938 C 7.128906 15.105469 7.039062 15.738281 7.195312 16.480469 C 7.347656 17.203125 7.675781 17.742188 8.183594 18.09375 C 8.695312 18.449219 9.296875 18.550781 9.996094 18.40625 C 10.410156 18.320312 10.785156 18.160156 11.128906 17.925781 L 10.945312 17.050781 L 9.199219 17.65625 L 9.15625 15.300781 L 13.003906 13.933594 L 14.28125 18.96875 C 13.796875 19.480469 13.199219 19.917969 12.492188 20.289062 C 11.785156 20.65625 11.066406 20.917969 10.34375 21.070312 C 10.242188 21.09375 10.140625 21.109375 10.039062 21.128906 L 17.519531 21.128906 C 17.738281 21.128906 17.917969 20.949219 17.917969 20.730469 L 17.917969 7.480469 C 17.917969 7.34375 17.855469 7.226562 17.753906 7.15625 Z M 17.753906 7.15625 " fill-opacity="1" fill-rule="nonzero"/></g><g fill="#31335b" fill-opacity="1"><g transform="translate(18.99195, 18.838659)"><g><path d="M 3.332031 -5.359375 C 1.789062 -5.359375 0.492188 -4.140625 0.492188 -2.625 C 0.492188 -1.109375 1.789062 0.117188 3.332031 0.117188 C 4.875 0.117188 6.175781 -1.109375 6.175781 -2.625 C 6.175781 -4.140625 4.875 -5.359375 3.332031 -5.359375 Z M 3.332031 -1.503906 C 2.742188 -1.503906 2.261719 -2.003906 2.261719 -2.625 C 2.261719 -3.246094 2.742188 -3.746094 3.332031 -3.746094 C 3.933594 -3.746094 4.414062 -3.246094 4.414062 -2.625 C 4.414062 -2.003906 3.933594 -1.503906 3.332031 -1.503906 Z M 3.332031 -1.503906 "/></g></g></g><g fill="#31335b" fill-opacity="1"><g transform="translate(25.657781, 18.838659)"><g><path d="M 3.332031 -1.503906 C 2.734375 -1.503906 2.25 -2.003906 2.25 -2.625 C 2.25 -3.246094 2.734375 -3.746094 3.332031 -3.746094 C 3.6875 -3.746094 3.921875 -3.578125 4.128906 -3.292969 C 4.199219 -3.207031 4.238281 -3.164062 4.386719 -3.164062 L 5.683594 -3.164062 C 5.898438 -3.164062 5.976562 -3.246094 5.890625 -3.511719 C 5.554688 -4.542969 4.550781 -5.359375 3.332031 -5.359375 C 1.789062 -5.359375 0.492188 -4.140625 0.492188 -2.625 C 0.492188 -1.109375 1.789062 0.117188 3.332031 0.117188 C 4.582031 0.117188 5.585938 -0.667969 5.878906 -1.710938 C 5.957031 -1.984375 5.890625 -2.046875 5.644531 -2.046875 L 4.433594 -2.046875 C 4.226562 -2.046875 4.1875 -2.023438 4.121094 -1.9375 C 3.921875 -1.671875 3.675781 -1.503906 3.332031 -1.503906 Z M 3.332031 -1.503906 "/></g></g></g><g fill="#31335b" fill-opacity="1"><g transform="translate(32.077822, 18.838659)"><g><path d="M 4.710938 -5.238281 C 4.582031 -5.289062 4.316406 -5.359375 3.933594 -5.359375 C 3.253906 -5.359375 2.59375 -4.964844 2.429688 -4.730469 L 2.429688 -4.976562 C 2.429688 -5.113281 2.320312 -5.21875 2.191406 -5.21875 L 0.738281 -5.21875 C 0.609375 -5.21875 0.492188 -5.113281 0.492188 -4.976562 L 0.492188 -0.234375 C 0.492188 -0.109375 0.609375 0 0.738281 0 L 2.191406 0 C 2.320312 0 2.429688 -0.109375 2.429688 -0.234375 L 2.429688 -0.226562 L 2.4375 -0.234375 L 2.4375 -2.449219 C 2.4375 -3.285156 3.019531 -3.441406 3.382812 -3.449219 C 3.765625 -3.460938 4.109375 -3.363281 4.316406 -3.292969 C 4.511719 -3.234375 4.648438 -3.34375 4.679688 -3.570312 C 4.699219 -3.726562 4.789062 -4.710938 4.808594 -4.886719 C 4.816406 -5.023438 4.828125 -5.179688 4.710938 -5.238281 Z M 4.710938 -5.238281 "/></g></g></g><g fill="#31335b" fill-opacity="1"><g transform="translate(37.386884, 18.838659)"><g><path d="M 5.800781 -5.21875 L 4.414062 -5.21875 C 4.179688 -5.21875 4.140625 -5.152344 4.050781 -4.964844 C 4.019531 -4.90625 3.332031 -2.488281 3.332031 -2.488281 C 3.332031 -2.488281 2.507812 -4.886719 2.46875 -4.964844 C 2.378906 -5.152344 2.339844 -5.21875 2.105469 -5.21875 L 0.738281 -5.21875 C 0.5 -5.21875 0.453125 -5.082031 0.539062 -4.867188 C 0.601562 -4.71875 1.917969 -1.542969 2.429688 -0.316406 C 2.300781 0.304688 1.21875 0.265625 1.21875 0.265625 C 1.089844 0.265625 0.984375 0.382812 0.984375 0.53125 L 0.984375 1.800781 C 0.984375 1.945312 1.082031 2.054688 1.21875 2.054688 C 1.789062 2.054688 3.421875 2.183594 4.285156 -0.0117188 C 4.394531 -0.285156 5.949219 -4.710938 6.015625 -4.894531 C 6.085938 -5.09375 6.027344 -5.21875 5.800781 -5.21875 Z M 5.800781 -5.21875 "/></g></g></g><g fill="#31335b" fill-opacity="1"><g transform="translate(43.924901, 18.838659)"><g><path d="M 3.875 -5.359375 C 3.34375 -5.359375 2.636719 -5.023438 2.429688 -4.730469 L 2.429688 -4.976562 C 2.429688 -5.113281 2.308594 -5.21875 2.183594 -5.21875 L 0.726562 -5.21875 C 0.601562 -5.21875 0.492188 -5.113281 0.492188 -4.976562 L 0.492188 1.820312 C 0.492188 1.957031 0.601562 2.066406 0.726562 2.066406 L 2.183594 2.066406 C 2.308594 2.066406 2.429688 1.957031 2.429688 1.820312 L 2.429688 -0.335938 C 2.839844 -0.0507812 3.34375 0.117188 3.875 0.117188 C 5.328125 0.117188 6.378906 -1.109375 6.378906 -2.625 C 6.378906 -4.140625 5.328125 -5.359375 3.875 -5.359375 Z M 3.449219 -1.433594 C 2.878906 -1.433594 2.429688 -1.964844 2.429688 -2.625 C 2.429688 -3.285156 2.878906 -3.824219 3.449219 -3.824219 C 4.011719 -3.824219 4.445312 -3.285156 4.445312 -2.625 C 4.445312 -1.964844 4.011719 -1.433594 3.449219 -1.433594 Z M 3.449219 -1.433594 "/></g></g></g><g fill="#31335b" fill-opacity="1"><g transform="translate(50.797193, 18.838659)"><g><path d="M 4.828125 -0.382812 C 4.808594 -0.621094 4.75 -1.25 4.730469 -1.355469 C 4.710938 -1.496094 4.679688 -1.601562 4.492188 -1.574219 C 3.636719 -1.464844 3.46875 -1.535156 3.46875 -2.289062 L 3.46875 -3.53125 L 4.335938 -3.53125 C 4.472656 -3.53125 4.582031 -3.636719 4.582031 -3.773438 L 4.582031 -4.984375 C 4.582031 -5.113281 4.472656 -5.21875 4.335938 -5.21875 L 3.46875 -5.21875 L 3.46875 -6.300781 C 3.46875 -6.429688 3.363281 -6.539062 3.234375 -6.539062 L 1.78125 -6.539062 C 1.652344 -6.539062 1.535156 -6.429688 1.535156 -6.300781 L 1.535156 -5.21875 L 0.738281 -5.21875 C 0.601562 -5.21875 0.492188 -5.113281 0.492188 -4.984375 L 0.492188 -3.773438 C 0.492188 -3.636719 0.601562 -3.53125 0.738281 -3.53125 L 1.535156 -3.53125 L 1.535156 -1.433594 C 1.535156 -0.324219 2.261719 0.117188 3.183594 0.117188 C 3.875 0.117188 4.355469 0.0507812 4.621094 -0.0117188 C 4.777344 -0.0507812 4.847656 -0.148438 4.828125 -0.382812 Z M 4.828125 -0.382812 "/></g></g></g></svg>